<svg width="96" height="97" viewBox="0 0 96 97" fill="none" xmlns="http://www.w3.org/2000/svg">
<g clip-path="url(#clip0_9536_41832)">
<mask id="mask0_9536_41832" style="mask-type:luminance" maskUnits="userSpaceOnUse" x="0" y="0" width="96" height="97">
<path d="M96 0.5H0V96.5H96V0.5Z" fill="white"/>
</mask>
<g mask="url(#mask0_9536_41832)">
<g opacity="0.0841057">
<path d="M48.0002 6.53101C71.1629 6.53101 89.9692 25.3373 89.9692 48.5C89.9692 71.6626 71.1629 90.4689 48.0002 90.4689C24.8375 90.4689 6.03125 71.6626 6.03125 48.5C6.03125 25.3373 24.8375 6.53101 48.0002 6.53101Z" stroke="#FFC107" stroke-width="4.73608"/>
</g>
<g opacity="0.942176">
<path d="M48.0008 13.0537C67.5636 13.0537 83.447 28.9371 83.447 48.4999C83.447 68.0626 67.5636 83.946 48.0008 83.946C28.4381 83.946 12.5547 68.0626 12.5547 48.4999C12.5547 28.9371 28.4381 13.0537 48.0008 13.0537Z" fill="#FFC107"/>
</g>
<path d="M48 32.7107V53.763" stroke="white" stroke-width="8.65939" stroke-linecap="round"/>
<path d="M47.7446 59.0984C50.0139 59.0984 51.8563 60.9409 51.8563 63.2102C51.8563 65.4794 50.0139 67.3219 47.7446 67.3219C45.4753 67.3219 43.6328 65.4794 43.6328 63.2102C43.6328 60.9409 45.4753 59.0984 47.7446 59.0984Z" fill="white"/>
</g>
</g>
<defs>
<clipPath id="clip0_9536_41832">
<rect width="96" height="96" fill="white" transform="translate(0 0.5)"/>
</clipPath>
</defs>
</svg>
