<svg width="27" height="26" viewBox="0 0 27 26" fill="none" xmlns="http://www.w3.org/2000/svg">
<mask id="mask0_2090_247" style="mask-type:luminance" maskUnits="userSpaceOnUse" x="0" y="0" width="27" height="26">
<path d="M0.5 0H26.5V26H0.5V0Z" fill="white"/>
<path fill-rule="evenodd" clip-rule="evenodd" d="M13.5 14C13.894 14 14.2841 13.9224 14.6481 13.7716C15.012 13.6209 15.3427 13.3999 15.6213 13.1213C15.8999 12.8427 16.1209 12.512 16.2716 12.1481C16.4224 11.7841 16.5 11.394 16.5 11C16.5 10.606 16.4224 10.2159 16.2716 9.85195C16.1209 9.48797 15.8999 9.15726 15.6213 8.87868C15.3427 8.6001 15.012 8.37913 14.6481 8.22836C14.2841 8.0776 13.894 8 13.5 8C12.7044 8 11.9413 8.31607 11.3787 8.87868C10.8161 9.44129 10.5 10.2044 10.5 11C10.5 11.7956 10.8161 12.5587 11.3787 13.1213C11.9413 13.6839 12.7044 14 13.5 14ZM13.5 9C14.0304 9 14.5391 9.21071 14.9142 9.58579C15.2893 9.96086 15.5 10.4696 15.5 11C15.5 11.5304 15.2893 12.0391 14.9142 12.4142C14.5391 12.7893 14.0304 13 13.5 13C12.9696 13 12.4609 12.7893 12.0858 12.4142C11.7107 12.0391 11.5 11.5304 11.5 11C11.5 10.4696 11.7107 9.96086 12.0858 9.58579C12.4609 9.21071 12.9696 9 13.5 9Z" fill="black"/>
<path fill-rule="evenodd" clip-rule="evenodd" d="M6.5 11.123C6.5 15.125 10.723 22 13.5 22C16.277 22 20.5 15.125 20.5 11.123C20.5 7.191 17.368 4 13.5 4C9.632 4 6.5 7.191 6.5 11.123ZM19.5 11.123C19.5 14.643 15.596 21 13.5 21C11.404 21 7.5 14.643 7.5 11.123C7.5 7.74 10.188 5 13.5 5C16.812 5 19.5 7.74 19.5 11.123Z" fill="black"/>
</mask>
<g mask="url(#mask0_2090_247)">
<path d="M13.5 26C20.6797 26 26.5 20.1797 26.5 13C26.5 5.8203 20.6797 0 13.5 0C6.3203 0 0.5 5.8203 0.5 13C0.5 20.1797 6.3203 26 13.5 26Z" fill="#FF5656"/>
</g>
</svg>
