<svg width="26" height="26" viewBox="0 0 26 26" fill="none" xmlns="http://www.w3.org/2000/svg">
<g clip-path="url(#clip0_2090_259)">
<g clip-path="url(#clip1_2090_259)">
<path d="M0.550576 13.071C0.549971 15.2556 1.12076 17.3886 2.20611 19.2686L0.446777 25.6922L7.02055 23.9686C8.83877 24.9584 10.8759 25.477 12.9461 25.4772H12.9516C19.7856 25.4772 25.3487 19.9161 25.3517 13.0808C25.353 9.76864 24.0643 6.65408 21.7228 4.31086C19.3818 1.96784 16.2684 0.676805 12.9511 0.675293C6.11619 0.675293 0.553498 6.23607 0.550677 13.071" fill="url(#paint0_linear_2090_259)"/>
<path d="M0.107829 13.0669C0.107124 15.33 0.698372 17.5393 1.82242 19.4867L0 26.1406L6.80948 24.3552C8.68571 25.3781 10.7982 25.9175 12.9477 25.9183H12.9532C20.0325 25.9183 25.7954 20.1572 25.7985 13.0772C25.7997 9.64602 24.4646 6.4195 22.0395 3.99233C19.6142 1.56546 16.3894 0.227973 12.9532 0.226562C5.87278 0.226562 0.110651 5.98687 0.107829 13.0669ZM4.16313 19.1513L3.90887 18.7477C2.84005 17.0483 2.27591 15.0844 2.27671 13.0677C2.27893 7.18297 7.06817 2.39525 12.9573 2.39525C15.8092 2.39645 18.4894 3.50821 20.5053 5.52532C22.5211 7.54264 23.6304 10.2243 23.6297 13.0764C23.6271 18.9612 18.8377 23.7495 12.9532 23.7495H12.949C11.033 23.7485 9.15382 23.2339 7.51501 22.2616L7.12501 22.0303L3.08412 23.0897L4.16313 19.1513Z" fill="url(#paint1_linear_2090_259)"/>
<path d="M9.74278 7.69875C9.50233 7.16434 9.24929 7.15356 9.02063 7.14419C8.83339 7.13612 8.61934 7.13673 8.40549 7.13673C8.19145 7.13673 7.84367 7.21725 7.54971 7.53822C7.25545 7.85949 6.42627 8.63586 6.42627 10.2149C6.42627 11.794 7.57642 13.3201 7.73675 13.5344C7.89729 13.7484 9.95713 17.0925 13.2194 18.379C15.9307 19.4481 16.4824 19.2355 17.0709 19.1819C17.6594 19.1285 18.9699 18.4057 19.2372 17.6563C19.5048 16.9069 19.5048 16.2645 19.4246 16.1303C19.3443 15.9966 19.1303 15.9163 18.8093 15.7558C18.4884 15.5954 16.9103 14.8188 16.6162 14.7117C16.3219 14.6047 16.1079 14.5513 15.8939 14.8726C15.6799 15.1935 15.0652 15.9163 14.8779 16.1303C14.6907 16.3449 14.5034 16.3716 14.1825 16.211C13.8614 16.05 12.8277 15.7115 11.6014 14.6182C10.6472 13.7674 10.0031 12.7169 9.81584 12.3955C9.6286 12.0746 9.79579 11.9007 9.95673 11.7407C10.1009 11.5969 10.2778 11.366 10.4384 11.1786C10.5985 10.9912 10.6519 10.8575 10.7589 10.6434C10.866 10.4292 10.8124 10.2417 10.7323 10.0812C10.6519 9.92064 10.0282 8.33333 9.74278 7.69875Z" fill="white"/>
</g>
</g>
<defs>
<linearGradient id="paint0_linear_2090_259" x1="1245.69" y1="2502.37" x2="1245.69" y2="0.675293" gradientUnits="userSpaceOnUse">
<stop stop-color="#1FAF38"/>
<stop offset="1" stop-color="#60D669"/>
</linearGradient>
<linearGradient id="paint1_linear_2090_259" x1="1289.92" y1="2591.63" x2="1289.92" y2="0.226562" gradientUnits="userSpaceOnUse">
<stop stop-color="#F9F9F9"/>
<stop offset="1" stop-color="white"/>
</linearGradient>
<clipPath id="clip0_2090_259">
<rect width="26" height="26" fill="white"/>
</clipPath>
<clipPath id="clip1_2090_259">
<rect width="25.7985" height="26" fill="white" transform="translate(0 0.226562)"/>
</clipPath>
</defs>
</svg>
