<svg width="154" height="150" viewBox="0 0 154 150" fill="none" xmlns="http://www.w3.org/2000/svg">
<g clip-path="url(#clip0_4059_22622)">
<path d="M97.7217 33.7346H56.3146C55.371 33.7358 54.4664 34.1111 53.7992 34.7784C53.132 35.4456 52.7566 36.3502 52.7555 37.2938V129.321L52.2809 129.466L42.1231 132.577C41.6417 132.724 41.1217 132.673 40.6773 132.437C40.2329 132.201 39.9004 131.798 39.7528 131.317L9.53791 32.6218C9.39087 32.1404 9.44098 31.6203 9.67724 31.1758C9.9135 30.7313 10.3166 30.3988 10.7979 30.2514L26.451 25.4584L71.8302 11.5683L87.4832 6.77527C87.7215 6.70196 87.9718 6.67634 88.2199 6.69988C88.468 6.72342 88.7091 6.79567 88.9293 6.91247C89.1494 7.02928 89.3444 7.18836 89.503 7.3806C89.6617 7.57285 89.7808 7.79449 89.8537 8.03284L97.577 33.2601L97.7217 33.7346Z" fill="#F2F2F2"/>
<path d="M106.756 33.26L97.4481 2.85537C97.2932 2.34877 97.04 1.87765 96.703 1.46894C96.366 1.06022 95.9518 0.721923 95.484 0.473366C95.0162 0.224809 94.504 0.0708646 93.9766 0.0203369C93.4493 -0.0301909 92.9172 0.0236876 92.4107 0.178888L70.4033 6.91517L25.0266 20.8077L3.01921 27.5464C1.99686 27.8603 1.14083 28.567 0.639026 29.5115C0.13722 30.4559 0.0306288 31.5608 0.342655 32.5837L32.1567 136.494C32.4102 137.32 32.9216 138.043 33.616 138.556C34.3104 139.07 35.1511 139.348 36.0149 139.349C36.4147 139.349 36.8122 139.289 37.1941 139.171L52.2801 134.553L52.7547 134.406V133.91L52.2801 134.055L37.0541 138.718C36.1517 138.993 35.177 138.899 34.3439 138.456C33.5108 138.013 32.8872 137.258 32.6099 136.357L0.798323 32.4438C0.660962 31.9969 0.613087 31.5274 0.65744 31.0621C0.701793 30.5967 0.837499 30.1447 1.05679 29.7319C1.27609 29.3191 1.57467 28.9536 1.93542 28.6563C2.29618 28.3591 2.71202 28.1359 3.15916 27.9996L25.1666 21.2609L70.5434 7.37074L92.5508 0.632091C92.8899 0.528591 93.2425 0.475818 93.5971 0.475487C94.3581 0.477196 95.0985 0.72253 95.7099 1.17555C96.3214 1.62858 96.7717 2.26549 96.9949 2.99299L106.261 33.26L106.408 33.7345H106.901L106.756 33.26Z" fill="#3F3D56"/>
<path d="M29.2751 30.329C28.8178 30.3286 28.3726 30.1818 28.0049 29.9099C27.6371 29.638 27.3662 29.2554 27.2318 28.8183L24.1756 18.8356C24.0935 18.5675 24.065 18.2858 24.0918 18.0066C24.1185 17.7275 24.2 17.4563 24.3316 17.2086C24.4632 16.961 24.6422 16.7416 24.8586 16.5632C25.0749 16.3847 25.3243 16.2507 25.5925 16.1686L67.3387 3.38799C67.8802 3.22274 68.4652 3.2791 68.9652 3.54471C69.4653 3.81031 69.8395 4.26346 70.0058 4.8047L73.062 14.7875C73.2272 15.329 73.1708 15.914 72.9052 16.414C72.6396 16.914 72.1865 17.2882 71.6453 17.4546L29.899 30.2352C29.6968 30.2973 29.4866 30.3289 29.2751 30.329Z" fill="#A67C00"/>
<path d="M45.2846 10.6668C47.9055 10.6668 50.0301 8.5422 50.0301 5.92131C50.0301 3.30043 47.9055 1.17578 45.2846 1.17578C42.6637 1.17578 40.5391 3.30043 40.5391 5.92131C40.5391 8.5422 42.6637 10.6668 45.2846 10.6668Z" fill="#A67C00"/>
<path d="M45.2853 8.92605C46.9449 8.92605 48.2903 7.58066 48.2903 5.92103C48.2903 4.26141 46.9449 2.91602 45.2853 2.91602C43.6257 2.91602 42.2803 4.26141 42.2803 5.92103C42.2803 7.58066 43.6257 8.92605 45.2853 8.92605Z" fill="white"/>
<path d="M143.158 138.137H62.9583C62.4235 138.136 61.9109 137.923 61.5328 137.545C61.1547 137.167 60.942 136.654 60.9414 136.12V40.0227C60.942 39.488 61.1547 38.9753 61.5328 38.5972C61.9109 38.2191 62.4235 38.0065 62.9583 38.0059H143.158C143.692 38.0065 144.205 38.2192 144.583 38.5973C144.961 38.9754 145.174 39.488 145.175 40.0227V136.12C145.174 136.654 144.961 137.167 144.583 137.545C144.205 137.923 143.692 138.136 143.158 138.137Z" fill="#E6E6E6"/>
<path d="M106.261 33.2598H56.314C55.2446 33.2613 54.2195 33.6867 53.4634 34.4429C52.7073 35.199 52.2818 36.2241 52.2803 37.2935V134.055L52.7548 133.91V37.2935C52.756 36.3499 53.1313 35.4453 53.7985 34.778C54.4658 34.1108 55.3704 33.7355 56.314 33.7343H106.408L106.261 33.2598ZM149.801 33.2598H56.314C55.2446 33.2613 54.2195 33.6867 53.4634 34.4429C52.7073 35.199 52.2818 36.2241 52.2803 37.2935V145.966C52.2818 147.035 52.7073 148.061 53.4634 148.817C54.2195 149.573 55.2446 149.998 56.314 150H149.801C150.87 149.998 151.895 149.573 152.652 148.817C153.408 148.061 153.833 147.035 153.835 145.966V37.2935C153.833 36.2241 153.408 35.199 152.652 34.4429C151.895 33.6867 150.87 33.2613 149.801 33.2598ZM153.36 145.966C153.359 146.91 152.984 147.814 152.316 148.482C151.649 149.149 150.745 149.524 149.801 149.525H56.314C55.3704 149.524 54.4658 149.149 53.7985 148.482C53.1313 147.814 52.756 146.91 52.7548 145.966V37.2935C52.756 36.3499 53.1313 35.4453 53.7985 34.778C54.4658 34.1108 55.3704 33.7355 56.314 33.7343H149.801C150.745 33.7355 151.649 34.1108 152.316 34.778C152.984 35.4453 153.359 36.3499 153.36 37.2935V145.966Z" fill="#3F3D56"/>
<path d="M124.887 43.7004H81.2283C80.6621 43.6998 80.1193 43.4746 79.7189 43.0742C79.3186 42.6739 79.0934 42.1311 79.0928 41.5649V31.1247C79.0934 30.5586 79.3186 30.0158 79.719 29.6154C80.1193 29.2151 80.6621 28.9899 81.2283 28.9893H124.887C125.453 28.9899 125.996 29.2151 126.396 29.6154C126.797 30.0158 127.022 30.5586 127.023 31.1247V41.5649C127.022 42.1311 126.797 42.6739 126.396 43.0742C125.996 43.4746 125.453 43.6998 124.887 43.7004Z" fill="#A67C00"/>
<path d="M103.058 29.701C105.679 29.701 107.804 27.5764 107.804 24.9555C107.804 22.3346 105.679 20.21 103.058 20.21C100.437 20.21 98.3125 22.3346 98.3125 24.9555C98.3125 27.5764 100.437 29.701 103.058 29.701Z" fill="#A67C00"/>
<path d="M103.057 27.8454C104.654 27.8454 105.948 26.5513 105.948 24.9549C105.948 23.3586 104.654 22.0645 103.057 22.0645C101.461 22.0645 100.167 23.3586 100.167 24.9549C100.167 26.5513 101.461 27.8454 103.057 27.8454Z" fill="white"/>
</g>
<defs>
<clipPath id="clip0_4059_22622">
<rect width="153.669" height="150" fill="white" transform="translate(0.166016)"/>
</clipPath>
</defs>
</svg>
